<svg
  xmlns="http://www.w3.org/2000/svg"
  width="512"
  height="512"
  viewBox="170 95 920 920"
>
  <path fill="#79ae6f" d="M609.5 241.6c-37 4.2-77 16-109.6 32.4-48.9 24.6-93.9 63.2-125.1 107.3L370 388H290.3l-7.9 13.7c-13.1 23-36.7 70.7-46.2 93.5-.2.4 12.1.8 27.3.8 24.7 0 27.6.2 27.1 1.6-3.4 8.9-11.5 48.5-14.8 72.4-2.1 15.2-1.8 67.2.5 84 3.7 26.9 9.2 50 18.1 75.2 6.3 18 17.3 43.5 21.5 49.7.8 1.2 2.4.5 8.8-3.6 16.3-10.6 43.6-26.1 75.7-42.8 14.1-7.4 14.4-7.6 14.9-11.3.2-2 .4-56.6.3-121.2l-.1-117.5-79.2-.3c-43.6-.1-79.3-.5-79.3-.9 0-1.2 26.9-53.1 33.9-65.5 4-7 8-12.8 8.9-13 .9-.1 86.5-.2 190.1 0l188.4.2-6.9 4.9c-14 9.9-26.9 22.7-36.9 36.6-5.8 8.1-15.6 26.7-17.7 33.7l-1.1 3.8H500v99.6c0 94.5.1 99.6 1.8 99 8.8-3.3 175.2-90.3 178-93.1.2-.2-3.2-4.4-7.5-9.4-11.4-13-18.5-26.6-23.5-44.9-1.8-6.4-2.2-10.6-2.2-24.2-.1-14.2.2-17.7 2.2-25 12.2-44.8 48.5-74.9 97.7-80.9 5.8-.7 35-1.1 81.6-1.1h72.5l3.7 5.2 3.7 5.3-7.2 7c-4 3.8-12.5 11.9-18.8 17.9-6.3 6.1-17.6 17-25.1 24.3L843.3 475h-43.9c-34.5 0-45 .3-49.2 1.4-15.8 4.2-25 14.1-26 27.7-1.1 16.4 7.8 26.7 30.9 35.8l5.6 2.2 22.1-13c37.3-22 59.3-35.8 92.8-58.2 19.9-13.2 51-35.2 59.4-41.8 2.5-1.9 4.7-3.6 4.9-3.8.6-.4-7.8-15.1-15.7-27.7-25.3-40-56-72.3-93.7-98.6-39.4-27.5-85.2-46.6-130.7-54.5-25.7-4.5-65.2-5.8-90.3-2.9zM1071.7 297.4c-6.8 2.8-13.5 7.8-26.1 19.1l-9.2 8.4-22-3c-12-1.6-28.7-3.8-37.1-4.9l-15.2-2-6.9 4.2c-3.8 2.4-6.9 4.7-7.1 5.2-.1.5 5.3 3.2 12.1 6.1 18.5 7.8 45.8 20.7 45.8 21.6 0 .4-3 4.1-6.7 8.1-3.8 4-10.8 11.9-15.7 17.5-7.1 8.2-9.3 10.2-11 9.8-1.2-.3-6.8-1.6-12.6-3s-11.2-2.5-12-2.5c-.8 0-3 1.3-4.9 2.9l-3.4 2.8 9.5 5.6c13.5 8 14.2 8.6 12.9 12-1.8 4.6-1.5 5 3.4 4.5l4.4-.5 3 7.1c1.6 3.9 4.1 9.8 5.6 13l2.6 5.9 3-2.9c2.8-2.6 2.9-3.2 2.4-8.4-.4-3-1-9.7-1.4-14.9l-.7-9.4 19.4-14.4c10.7-7.9 19.5-14.3 19.7-14.1.3.4 7.6 27.6 13 49 2.1 8.2 4.1 14.8 4.4 14.8.3-.1 2.7-2.8 5.4-6.2l4.7-6.1v-10.1c0-5.6.5-23.2 1-39.1l1-29 6.7-5.9c10.8-9.5 21.9-21.5 25.7-28 3.7-6.3 4.7-12.1 2.4-14.4-1.9-1.9-9.9-1.3-16.1 1.2zM943.5 449.6c-8.2 7.3-44.1 37.3-57 47.5-38.1 30.3-95.8 71.2-138.8 98.5-4.3 2.7-11.9 7.5-17 10.8-31.6 20.1-87.3 53.3-155.2 92.6-74.3 43-108.2 63-134 79-45.1 28-68.4 46-82.9 64.2-12.3 15.3-17.2 27.6-16.4 41.2.8 13.5 5.3 22.5 17.9 36 18.4 19.7 44.7 37.6 81.9 55.8 10.2 5 23.2 11 29 13.3 28.1 11.5 63 20.3 97 24.5 4.7.6 21.6 1.3 37.5 1.5 21.6.3 26.9.1 21-.6-37.3-4.4-59.4-10-71.2-18-9.6-6.6-11-13-4.3-20.3 7.4-8 18.6-12.9 66-28.6 45.9-15.3 58.2-20.8 60.4-27.2.8-2.3.6-3.2-1.4-5.3-6.7-7.2-46.4-16.5-91.5-21.5l-18-2 24 .6c49.1 1 93 7.3 116.1 16.4 10.3 4.1 14.1 6.5 16 10.2 4.6 8.9-4.2 16.1-38.8 31.7-26.9 12.2-45.8 22.2-45.8 24.3 0 1.1 17.4 1 28.8-.2 47.1-5 89.8-17.3 131.7-38 15.5-7.7 29.5-15.7 29.5-16.8 0-1-3.5-2.4-20.5-8.2-56.5-19.2-130.8-28.4-216.5-26.6-17.3.3-35.5.9-40.5 1.3l-8.9.6 6.9-5.8c3.9-3.2 10.4-8.9 14.5-12.5 11.2-9.9 15.9-13.1 18.5-12.4 4.6 1.2 4.1 1.8 37.5-44 7.2-9.8 13-18 12.8-18.1-.4-.5-25.5 19.9-30.3 24.6-3.3 3.1-4.8 3.9-7.8 3.9-4.4 0-3.9-.5-28.4 25.5-35.6 37.6-37.4 39.3-42 40-2.4.4-4.3.3-4.3-.2 0-.4 3.2-6.4 7-13.2 3.9-6.8 6.9-12.5 6.8-12.7-.2-.2-2.5.4-5 1.4-2.6.9-5 1.3-5.3 1-.4-.4 1.5-4.6 4.3-9.5 9.3-16.5 9.3-16.6.8-8.3-4.2 4.1-10.4 10.7-13.8 14.7-3.4 4-7.5 7.7-9.2 8.4-5.9 2.1-7.7 3.3-13.7 8.7-6.7 6.1-8.9 6.2-4 .2 1.7-2.2 2.7-4 2.1-4-1.4 0-20.5 9.5-24.4 12.2-1.7 1.2-4.3 3.2-5.7 4.5-1.5 1.4-3.9 2.6-5.5 2.8-1.6.2-7 .9-12 1.5-5.1.5-11.1 1.7-13.4 2.5-2.3.8-5.1 1.5-6.1 1.5-3 0-13-4.1-13.6-5.5-.2-.8.6-2.9 2-4.7 1.3-1.8 3.2-4.6 4.2-6.1l1.8-2.9-4.9.8-4.9.7 4.5-4.9 4.5-4.9-3.2-.3-3.2-.3 4.4-4.3c2.5-2.3 4.5-4.8 4.5-5.5 0-.7-.4-1-.9-.7-.5.4-1.7.3-2.6 0-1.4-.6-1.2-1.1 1.2-3.8 1.6-1.7 3.6-4 4.3-5 1.4-1.8 1.3-1.9-1.8-1.4-1.7.2-3.2.2-3.2-.1 0-.3 1.8-3.2 4-6.5 4.1-6 5.1-9.2 2.6-8.3-2.6 1-2.5-.5.5-5.1 1.6-2.6 3.9-7.7 5-11.5 1.2-3.7 2.2-6.7 2.4-6.7.1 0 1.3 3.2 2.5 7 1.2 3.9 3.5 9 5.1 11.5 3.4 5.4 3.5 5.9.9 5.2-1.1-.3-2-.2-2 .2 0 .8 4.8 8.2 8.1 12.5l2.3 2.9-3.7-.5c-2-.2-3.7-.1-3.7.3 0 .9 5.7 8.6 6.9 9.4.6.3 1.1 1.3 1.1 2.2 0 1.2-.7 1.4-3.1.9-3.6-.7-3.8-1.1 3.9 8.1l4.3 5.2-4.8.3-4.8.3 3.9 4.2c4.3 4.8 5.1 5 8.4 2.4 2.6-2.2 2.8-3.1.7-3.1-2.4 0-1.8-2.1 1.7-5.7l3.2-3.3h-6.5l4.1-5.3c2.2-3 4-5.6 4-5.9 0-.3-1.1-.3-2.5 0-2.9.5-3.3-.8-.7-2.4.9-.6 2.5-2.6 3.5-4.3 1.6-2.7 1.6-3.1.3-3.1-2 0-2.1.6 1.4-6.4 1.7-3.2 3-6.7 3-7.8 0-3 1.7-1.2 2.4 2.6.4 1.9 1.8 5.1 3.2 7.1 1.9 2.9 2.2 4 1.3 4.6-1 .6-.6 1.7 1.4 4.6 3.1 4.4 3.3 5.5 1.2 4.7-.8-.4-1.5-.3-1.5 0 0 1 4.4 7.6 5.1 7.6.3 0 4.9-4.5 10.3-10 5.3-5.5 10.4-10 11.3-10 .9 0 12.6-10.9 25.9-24.2 22.2-22.1 24.4-24 26.1-22.7 1 .8 6.2 5.4 11.7 10.2 5.4 4.8 10.1 8.7 10.5 8.5.8-.4 62.2-64.5 72.2-75.4 4.1-4.5 7.7-8.2 8-8.3.3-.1 15.6 15 34 33.4C718 797.4 724 803 726.3 803c2.1 0 5.4 2.3 12.9 8.9l10.2 9 5-4.2c2.7-2.3 11-9.2 18.5-15.4l13.5-11.1 3.6 3.1c2.1 1.8 11.9 11 21.9 20.5l18.2 17.4 5.1-.4 5-.3 10.7 10.2c5.8 5.7 11.1 10.3 11.8 10.3.6 0 3.7 2 7 4.3 3.2 2.4 7.3 5.2 9.1 6.3l3.4 1.9 3.5-4c20.7-23.9 29.3-35.1 40.9-53.5 22.8-36.3 40.7-80.6 49.8-123 14.3-66.6 9.3-141.5-13.8-206.2-6.2-17.3-12-31.1-13.3-31.5-.4-.1-3 1.8-5.8 4.3zM834.2 575.7c24.2 7.8 37.7 13.3 48.6 19.8 24.4 14.5 39.3 32.7 46.9 57.1 2.6 8.4 2.7 9.9 2.7 27.9 0 17.9-.2 19.5-2.8 28-1.5 4.9-4.5 12.7-6.6 17.2-15.6 33.2-49.2 55.6-90.3 60.2-5.5.6-29.5 1.1-55.5 1.1h-45.9l-24.6-25.4-24.7-25.4V716h66.4c41.5 0 69.4-.4 74.3-1.1 14.2-1.9 24.3-8.2 29.3-18.2 3.9-7.9 4.2-17.6.6-25.2-2.9-6.3-10.8-13.5-19-17.4-3.3-1.6-26.7-9.8-51.8-18.1-25.2-8.3-46-15.5-46.3-16-.3-.5.5-1.4 1.7-2.1 4-2.1 45.8-30.2 59.8-40.2 9.9-7 14-9.5 15.5-9 1.1.3 10.9 3.4 21.7 7zM393 851.7c.7 2.1 2.3 5.5 3.6 7.5 2.8 4.4 2.9 4.8.9 4.8-1.2 0-1 .9 1 4 2.9 4.6 3 5.1 1 4.4-2.1-.9-1.9.3 1 4 2.9 3.8 3.1 4.6 1 4.6s-1.9 1.1 1.1 5.1c2.4 3.3 2.4 3.4.5 3.7-2.5.4-2.5.1-.5 4.7 1 2.4 1.2 4.1.6 4.7-1.7 1.7-8.6 2.8-18.5 2.8h-9.9l3.6-4.9c2-2.7 3.6-5.1 3.6-5.5 0-.3-1.1-.6-2.5-.6s-2.5-.2-2.5-.4c0-.3 1.6-2.2 3.5-4.3l3.5-3.8-2.5-.3c-1.4-.2-2.5-.6-2.5-.9 0-.3 1.7-2.4 3.7-4.7 3.6-3.9 3.6-4.1 1.6-4.4l-2.2-.3 2.7-4.1c1.9-2.9 2.3-4.3 1.4-4.6-.9-.3-.8-1.2.7-3.5 1-1.8 2.5-5.1 3.2-7.5.7-2.3 1.3-4.2 1.5-4.2.1 0 .8 1.7 1.4 3.7z" />
  <path fill="#79ae6f" d="m656.7 767.3-.5 14.2 5.9 7c5.3 6.3 22.7 37 21.6 38.1-.2.2-2.6-.3-5.3-1.1-4.8-1.4-15.4-2.1-15.4-.9 0 .3 2.6 3.5 5.9 7.2 3.2 3.7 8.8 10.1 12.4 14.2 3.5 4.1 7.1 7.3 7.8 7.1.8-.2 6.9-.6 13.7-1l12.3-.6-6-12c-3.4-6.5-6.1-12.1-6.1-12.3 0-.8 20 13.6 30.7 22 6.1 4.8 11.3 8.8 11.6 8.8.2 0 .1-1.9-.4-4.3-1.1-5.7-1.1-6.1.4-4.9 1.7 1.4 38.9 18.3 39.4 17.9.2-.2-8.3-8.2-18.8-17.8-15.8-14.4-19.7-17.5-22.5-17.7-2.9-.3-3.4-.7-3.4-2.8 0-1.7-1.9-4.5-5.7-8.5-5.1-5.4-6-5.9-9.8-5.9-4.1 0-4.5-.3-34-29.6-16.5-16.2-30.6-29.9-31.6-30.4-1.5-.8-1.7.4-2.2 13.3zM784.7 807.2c-13.2 21.6-13 20.1-4 21.1 6.2.7 9.3 3.6 14.7 13.7l3.5 6.6 9.3 2.4c11.6 2.9 11.5 2.8 22 11.2 4.7 3.8 10.1 7.4 12 8 1.8.6 4.5 2 6.1 3 2.3 1.7 2.8 1.7 3.3.4.3-.8.1-2.4-.6-3.5-1.4-2.7-.5-2.7 7.5-.2 8.1 2.5 13.9 3.5 13.1 2.3-.3-.6-4.4-3.6-9-6.7-5.2-3.4-11.6-9.1-16.5-14.4l-8-8.8-5.1.5-5.1.5-7.2-6.9c-7.5-7.1-24.4-22.6-30.9-28.3l-3.7-3.2-1.4 2.3zM845 867c0 .6-.7 1-1.5 1s-1.5-.2-1.5-.4-.3-1.2-.7-2.1c-.5-1.5-.3-1.6 1.5-.6 1.2.7 2.2 1.6 2.2 2.1zM551.7 820.6c-.5 8.3-.4 8.9 2.4 13.2 1.6 2.5 2.9 5.2 2.9 5.8 0 3.2 2.2 1.8 7.6-4.8l5.7-7.1-3.1-2.6c-1.7-1.4-5.7-5-9-7.8l-5.9-5.3-.6 8.6z" />
</svg>
